<svg width="1200" height="1200" viewBox="0 0 1200 1200" fill="none" xmlns="http://www.w3.org/2000/svg">
<g clip-path="url(#clip0_1_2)">
<mask id="mask0_1_2" style="mask-type:luminance" maskUnits="userSpaceOnUse" x="0" y="0" width="1200" height="1200">
<path d="M1200 0H0V1200H1200V0Z" fill="white"/>
</mask>
<g mask="url(#mask0_1_2)">
<path d="M1197 0H3C1.34315 0 0 1.34315 0 3V1197C0 1198.66 1.34315 1200 3 1200H1197C1198.66 1200 1200 1198.66 1200 1197V3C1200 1.34315 1198.66 0 1197 0Z" fill="#F4F4F5"/>
<path fill-rule="evenodd" clip-rule="evenodd" d="M520.13 575.152L551.995 571.131L532.58 545.546L528.969 554.134L445.834 519.175L440.607 531.606L523.741 566.565L520.13 575.152Z" fill="#00AA11"/>
<path fill-rule="evenodd" clip-rule="evenodd" d="M380.827 532.612L406.991 513.986L377.778 500.64L378.663 509.914L288.884 518.474L290.164 531.899L379.943 523.339L380.827 532.612Z" fill="#00AA11"/>
<path fill-rule="evenodd" clip-rule="evenodd" d="M377.827 690.612L403.991 671.986L374.778 658.64L375.663 667.914L285.884 676.474L287.164 689.899L376.943 681.339L377.827 690.612Z" fill="#FF4D4D"/>
<path fill-rule="evenodd" clip-rule="evenodd" d="M532.977 643.451L552.651 618.066L520.829 613.72L524.353 622.344L440.866 656.453L445.967 668.937L529.453 634.828L532.977 643.451Z" fill="#FF4D4D"/>
<path fill-rule="evenodd" clip-rule="evenodd" d="M753.414 610.031L781.229 593.973L753.414 577.914V587.23H663.229V600.716H753.414V610.031Z" fill="#FF4D4D"/>
<path fill-rule="evenodd" clip-rule="evenodd" d="M903.737 551.896L919.149 523.718L887.041 524.46L891.884 532.418L814.843 579.303L821.854 590.823L898.894 543.938L903.737 551.896Z" fill="#FF4D4D"/>
<circle cx="605.914" cy="594.771" r="57" stroke="#363636" stroke-width="4"/>
<circle cx="428" cy="516" r="12" fill="#00AA11" stroke="#00AA11" stroke-width="2"/>
<circle cx="426" cy="669" r="12" fill="#FF4D4D" stroke="#FF4D4D" stroke-width="2"/>
<circle cx="428.229" cy="516.229" r="18.2286" stroke="#00AA11" stroke-width="4"/>
<circle cx="426.229" cy="669.229" r="18.2286" stroke="#FF4D4D" stroke-width="4"/>
<circle cx="802" cy="594" r="12" fill="#FF4D4D" stroke="#FF4D4D" stroke-width="2"/>
<circle cx="802.229" cy="594.229" r="18.2286" stroke="#FF4D4D" stroke-width="4"/>
<path d="M424.591 571.409C423.485 571.409 422.481 571.201 421.58 570.784C420.678 570.36 419.962 569.75 419.432 568.955C418.902 568.152 418.636 567.182 418.636 566.045C418.636 565.045 418.833 564.235 419.227 563.614C419.621 562.985 420.148 562.492 420.807 562.136C421.466 561.78 422.193 561.515 422.989 561.341C423.792 561.159 424.598 561.015 425.409 560.909C426.47 560.773 427.33 560.67 427.989 560.602C428.655 560.527 429.14 560.402 429.443 560.227C429.754 560.053 429.909 559.75 429.909 559.318V559.227C429.909 558.106 429.602 557.235 428.989 556.614C428.383 555.992 427.462 555.682 426.227 555.682C424.947 555.682 423.943 555.962 423.216 556.523C422.489 557.083 421.977 557.682 421.682 558.318L419.136 557.409C419.591 556.349 420.197 555.523 420.955 554.932C421.72 554.333 422.553 553.917 423.455 553.682C424.364 553.439 425.258 553.318 426.136 553.318C426.697 553.318 427.341 553.386 428.068 553.523C428.803 553.652 429.511 553.92 430.193 554.33C430.883 554.739 431.455 555.356 431.909 556.182C432.364 557.008 432.591 558.114 432.591 559.5V571H429.909V568.636H429.773C429.591 569.015 429.288 569.42 428.864 569.852C428.439 570.284 427.875 570.652 427.17 570.955C426.466 571.258 425.606 571.409 424.591 571.409ZM425 569C426.061 569 426.955 568.792 427.682 568.375C428.417 567.958 428.97 567.42 429.341 566.761C429.72 566.102 429.909 565.409 429.909 564.682V562.227C429.795 562.364 429.545 562.489 429.159 562.602C428.78 562.708 428.341 562.803 427.841 562.886C427.348 562.962 426.867 563.03 426.398 563.091C425.936 563.144 425.561 563.189 425.273 563.227C424.576 563.318 423.924 563.466 423.318 563.67C422.72 563.867 422.235 564.167 421.864 564.568C421.5 564.962 421.318 565.5 421.318 566.182C421.318 567.114 421.663 567.818 422.352 568.295C423.049 568.765 423.932 569 425 569Z" fill="#9B9B9B"/>
<path d="M771.591 654.409C770.485 654.409 769.481 654.201 768.58 653.784C767.678 653.36 766.962 652.75 766.432 651.955C765.902 651.152 765.636 650.182 765.636 649.045C765.636 648.045 765.833 647.235 766.227 646.614C766.621 645.985 767.148 645.492 767.807 645.136C768.466 644.78 769.193 644.515 769.989 644.341C770.792 644.159 771.598 644.015 772.409 643.909C773.47 643.773 774.33 643.67 774.989 643.602C775.655 643.527 776.14 643.402 776.443 643.227C776.754 643.053 776.909 642.75 776.909 642.318V642.227C776.909 641.106 776.602 640.235 775.989 639.614C775.383 638.992 774.462 638.682 773.227 638.682C771.947 638.682 770.943 638.962 770.216 639.523C769.489 640.083 768.977 640.682 768.682 641.318L766.136 640.409C766.591 639.348 767.197 638.523 767.955 637.932C768.72 637.333 769.553 636.917 770.455 636.682C771.364 636.439 772.258 636.318 773.136 636.318C773.697 636.318 774.341 636.386 775.068 636.523C775.803 636.652 776.511 636.92 777.193 637.33C777.883 637.739 778.455 638.356 778.909 639.182C779.364 640.008 779.591 641.114 779.591 642.5V654H776.909V651.636H776.773C776.591 652.015 776.288 652.42 775.864 652.852C775.439 653.284 774.875 653.652 774.17 653.955C773.466 654.258 772.606 654.409 771.591 654.409ZM772 652C773.061 652 773.955 651.792 774.682 651.375C775.417 650.958 775.97 650.42 776.341 649.761C776.72 649.102 776.909 648.409 776.909 647.682V645.227C776.795 645.364 776.545 645.489 776.159 645.602C775.78 645.708 775.341 645.803 774.841 645.886C774.348 645.962 773.867 646.03 773.398 646.091C772.936 646.144 772.561 646.189 772.273 646.227C771.576 646.318 770.924 646.466 770.318 646.67C769.72 646.867 769.235 647.167 768.864 647.568C768.5 647.962 768.318 648.5 768.318 649.182C768.318 650.114 768.663 650.818 769.352 651.295C770.049 651.765 770.932 652 772 652ZM800.077 654.318C798.546 654.318 797.228 654.038 796.122 653.477C795.016 652.917 794.164 652.148 793.565 651.17C792.967 650.193 792.668 649.076 792.668 647.818C792.668 646.848 792.872 645.989 793.281 645.239C793.698 644.481 794.27 643.78 794.997 643.136C795.732 642.485 796.577 641.833 797.531 641.182L800.895 638.682C801.554 638.25 802.08 637.788 802.474 637.295C802.876 636.803 803.077 636.159 803.077 635.364C803.077 634.773 802.815 634.201 802.293 633.648C801.777 633.095 801.099 632.818 800.259 632.818C799.668 632.818 799.145 632.97 798.69 633.273C798.243 633.568 797.891 633.947 797.634 634.409C797.384 634.864 797.259 635.333 797.259 635.818C797.259 636.364 797.406 636.917 797.702 637.477C798.005 638.03 798.387 638.598 798.849 639.182C799.319 639.758 799.804 640.348 800.304 640.955L810.986 654H807.759L798.94 643.364C798.122 642.379 797.38 641.485 796.713 640.682C796.046 639.879 795.516 639.087 795.122 638.307C794.728 637.527 794.531 636.682 794.531 635.773C794.531 634.727 794.762 633.811 795.224 633.023C795.694 632.227 796.349 631.61 797.19 631.17C798.039 630.723 799.031 630.5 800.168 630.5C801.334 630.5 802.338 630.727 803.179 631.182C804.02 631.629 804.668 632.223 805.122 632.966C805.577 633.701 805.804 634.5 805.804 635.364C805.804 636.477 805.527 637.443 804.974 638.261C804.421 639.08 803.668 639.841 802.713 640.545L798.077 644C797.031 644.773 796.323 645.523 795.952 646.25C795.58 646.977 795.395 647.5 795.395 647.818C795.395 648.545 795.584 649.224 795.963 649.852C796.342 650.481 796.876 650.989 797.565 651.375C798.255 651.761 799.062 651.955 799.986 651.955C800.865 651.955 801.721 651.769 802.554 651.398C803.387 651.019 804.141 650.473 804.815 649.761C805.497 649.049 806.035 648.193 806.429 647.193C806.83 646.193 807.031 645.068 807.031 643.818H809.622C809.622 645.364 809.444 646.625 809.088 647.602C808.732 648.58 808.33 649.345 807.884 649.898C807.437 650.451 807.077 650.864 806.804 651.136C806.713 651.25 806.63 651.364 806.554 651.477C806.478 651.591 806.395 651.705 806.304 651.818C805.554 652.659 804.607 653.288 803.463 653.705C802.319 654.114 801.19 654.318 800.077 654.318ZM823.318 654V630.727H826V639.318H826.227C826.424 639.015 826.697 638.629 827.045 638.159C827.402 637.682 827.909 637.258 828.568 636.886C829.235 636.508 830.136 636.318 831.273 636.318C832.742 636.318 834.038 636.686 835.159 637.42C836.28 638.155 837.155 639.197 837.784 640.545C838.413 641.894 838.727 643.485 838.727 645.318C838.727 647.167 838.413 648.769 837.784 650.125C837.155 651.474 836.284 652.519 835.17 653.261C834.057 653.996 832.773 654.364 831.318 654.364C830.197 654.364 829.299 654.178 828.625 653.807C827.951 653.428 827.432 653 827.068 652.523C826.705 652.038 826.424 651.636 826.227 651.318H825.909V654H823.318ZM825.955 645.273C825.955 646.591 826.148 647.754 826.534 648.761C826.92 649.761 827.485 650.545 828.227 651.114C828.97 651.674 829.879 651.955 830.955 651.955C832.076 651.955 833.011 651.659 833.761 651.068C834.519 650.47 835.087 649.667 835.466 648.659C835.852 647.644 836.045 646.515 836.045 645.273C836.045 644.045 835.856 642.939 835.477 641.955C835.106 640.962 834.542 640.178 833.784 639.602C833.034 639.019 832.091 638.727 830.955 638.727C829.864 638.727 828.947 639.004 828.205 639.557C827.462 640.102 826.902 640.867 826.523 641.852C826.144 642.83 825.955 643.97 825.955 645.273Z" fill="#9B9B9B"/>
<path d="M571.945 607H566.882L576.099 580.818H581.955L591.185 607H586.122L579.129 586.188H578.925L571.945 607ZM572.111 596.734H585.918V600.544H572.111V596.734ZM616.149 580.818V607H611.93L599.593 589.166H599.376V607H594.633V580.818H598.877L611.201 598.665H611.431V580.818H616.149ZM630.189 607H621.317V580.818H630.368C632.967 580.818 635.2 581.342 637.067 582.391C638.942 583.43 640.382 584.926 641.388 586.878C642.393 588.83 642.896 591.165 642.896 593.884C642.896 596.611 642.389 598.955 641.375 600.915C640.369 602.875 638.916 604.379 637.016 605.428C635.124 606.476 632.848 607 630.189 607ZM626.06 602.896H629.959C631.783 602.896 633.304 602.564 634.523 601.899C635.741 601.226 636.658 600.224 637.271 598.895C637.885 597.557 638.192 595.886 638.192 593.884C638.192 591.881 637.885 590.219 637.271 588.898C636.658 587.568 635.75 586.575 634.548 585.919C633.355 585.254 631.872 584.922 630.099 584.922H626.06V602.896Z" fill="#363636"/>
<circle cx="232" cy="531" r="57" stroke="#00AA11" stroke-width="4"/>
<circle cx="229" cy="689" r="30" fill="#FF4D4D" stroke="#FF4D4D" stroke-width="2"/>
<circle cx="971" cy="492" r="58" fill="#FF4D4D" stroke="#FF4D4D" stroke-width="2"/>
<circle cx="232" cy="531" r="30" fill="#00AA11" stroke="#00AA11" stroke-width="2"/>
<circle cx="229" cy="689" r="57" stroke="#FF4D4D" stroke-width="4"/>
<path d="M419.932 727.543V704.27H422.614V712.861H422.842C423.039 712.558 423.311 712.172 423.66 711.702C424.016 711.225 424.523 710.801 425.182 710.429C425.849 710.051 426.751 709.861 427.887 709.861C429.357 709.861 430.652 710.229 431.773 710.963C432.895 711.698 433.77 712.74 434.398 714.088C435.027 715.437 435.342 717.028 435.342 718.861C435.342 720.71 435.027 722.312 434.398 723.668C433.77 725.016 432.898 726.062 431.785 726.804C430.671 727.539 429.387 727.907 427.932 727.907C426.811 727.907 425.914 727.721 425.239 727.35C424.565 726.971 424.046 726.543 423.682 726.066C423.319 725.581 423.039 725.179 422.842 724.861H422.523V727.543H419.932ZM422.569 718.816C422.569 720.134 422.762 721.297 423.148 722.304C423.535 723.304 424.099 724.088 424.842 724.657C425.584 725.217 426.493 725.498 427.569 725.498C428.69 725.498 429.626 725.202 430.376 724.611C431.133 724.013 431.701 723.21 432.08 722.202C432.467 721.187 432.66 720.058 432.66 718.816C432.66 717.588 432.47 716.482 432.092 715.498C431.72 714.505 431.156 713.721 430.398 713.145C429.648 712.562 428.705 712.27 427.569 712.27C426.478 712.27 425.561 712.547 424.819 713.1C424.076 713.645 423.516 714.41 423.137 715.395C422.758 716.373 422.569 717.513 422.569 718.816Z" fill="#9B9B9B"/>
</g>
</g>
<defs>
<clipPath id="clip0_1_2">
<rect width="1200" height="1200" fill="white"/>
</clipPath>
</defs>
</svg>
